<svg xmlns="http://www.w3.org/2000/svg" viewBox="0 0 200 200">
  <circle cx="100" cy="100" r="84" fill="#E7F2E9"/>
  <circle cx="152" cy="54" r="9" fill="#CDF564"/>
  <circle cx="50" cy="152" r="6" fill="#9CC24B"/>
  <g transform="translate(59 59) scale(3.42)">
    <path fill="#0C2014" d="M14.19,14.19L6,18L9.81,9.81L18,6M12,2A10,10 0 0,0 2,12A10,10 0 0,0 12,22A10,10 0 0,0 22,12A10,10 0 0,0 12,2M12,10.9A1.1,1.1 0 0,0 10.9,12A1.1,1.1 0 0,0 12,13.1A1.1,1.1 0 0,0 13.1,12A1.1,1.1 0 0,0 12,10.9Z"/>
  </g>
</svg>
